<?xml version="1.0" encoding="utf-8"?>
<!-- Generator: Adobe Illustrator 16.0.0, SVG Export Plug-In . SVG Version: 6.00 Build 0)  -->
<!DOCTYPE svg PUBLIC "-//W3C//DTD SVG 1.1//EN" "http://www.w3.org/Graphics/SVG/1.1/DTD/svg11.dtd">
<svg version="1.1" id="Layer_1" xmlns="http://www.w3.org/2000/svg" xmlns:xlink="http://www.w3.org/1999/xlink" x="0px" y="0px"
	 width="60px" height="60px" viewBox="0 0 60 60" enable-background="new 0 0 60 60" xml:space="preserve">
<g>
	<defs>
		<rect id="SVGID_1_" x="7" y="7" width="46" height="46"/>
	</defs>
	<clipPath id="SVGID_2_">
		<use xlink:href="#SVGID_1_"  overflow="visible"/>
	</clipPath>
	
		<path clip-path="url(#SVGID_2_)" fill="none" stroke="#333333" stroke-width="2" stroke-linejoin="round" stroke-miterlimit="10" d="
		M8.573,14.966c-0.637,0.637-0.757,1.623-0.29,2.394c1.365,2.25,9.302,12.255,15.702,18.656
		c6.399,6.399,16.405,14.336,18.655,15.701c0.77,0.467,1.757,0.347,2.394-0.29L52,43.047l-9.808-9.808l-5.959,3.848l-13.32-13.32
		l3.848-5.959L16.953,8L8.573,14.966z"/>
	
		<path clip-path="url(#SVGID_2_)" fill="none" stroke="#333333" stroke-width="2" stroke-linejoin="round" stroke-miterlimit="10" d="
		M34,15c6.075,0,11,4.925,11,11"/>
	
		<path clip-path="url(#SVGID_2_)" fill="none" stroke="#333333" stroke-width="2" stroke-linejoin="round" stroke-miterlimit="10" d="
		M34,21c2.761,0,5,2.238,5,5"/>
	
		<path clip-path="url(#SVGID_2_)" fill="none" stroke="#333333" stroke-width="2" stroke-linejoin="round" stroke-miterlimit="10" d="
		M34,8c9.941,0,18,8.059,18,18"/>
</g>
</svg>
