<?xml version="1.0" encoding="utf-8"?>
<!-- Generator: Adobe Illustrator 16.0.0, SVG Export Plug-In . SVG Version: 6.00 Build 0)  -->
<!DOCTYPE svg PUBLIC "-//W3C//DTD SVG 1.1//EN" "http://www.w3.org/Graphics/SVG/1.1/DTD/svg11.dtd">
<svg version="1.1" id="Layer_1" xmlns="http://www.w3.org/2000/svg" xmlns:xlink="http://www.w3.org/1999/xlink" x="0px" y="0px"
	 width="60px" height="60px" viewBox="0 0 60 60" enable-background="new 0 0 60 60" xml:space="preserve">
<g>
	<defs>
		<rect id="SVGID_1_" x="5" y="5.5" width="50" height="49"/>
	</defs>
	<clipPath id="SVGID_2_">
		<use xlink:href="#SVGID_1_"  overflow="visible"/>
	</clipPath>
	<path clip-path="url(#SVGID_2_)" fill="none" stroke="#333333" stroke-width="2" stroke-miterlimit="10" d="M45,21.5
		c0-8.285-6.716-15-15-15s-15,6.715-15,15l2,19h26L45,21.5z"/>
	
		<line clip-path="url(#SVGID_2_)" fill="none" stroke="#333333" stroke-width="2" stroke-miterlimit="10" x1="14.085" y1="50.5" x2="14.085" y2="54.5"/>
	
		<line clip-path="url(#SVGID_2_)" fill="none" stroke="#333333" stroke-width="2" stroke-miterlimit="10" x1="46.085" y1="50.5" x2="46.085" y2="54.5"/>
	<path clip-path="url(#SVGID_2_)" fill="none" stroke="#333333" stroke-width="2" stroke-miterlimit="10" d="M48.695,25.509
		c-2.596,0.158-4.363,2.332-4.643,4.991L43,40.5H17l-1.053-10c-0.279-2.659-2.047-4.833-4.643-4.991
		c-2.637-0.161-5.042,1.889-5.283,4.521C5.778,32.685,7.62,34.949,10,35.407V45.5c0,2.761,2.238,5,5,5h29.936c2.761,0,5-2.239,5-5
		L50,35.407c2.38-0.458,4.222-2.723,3.979-5.377C53.737,27.398,51.333,25.348,48.695,25.509z"/>
</g>
</svg>
