<?xml version="1.0" encoding="utf-8"?>
<!-- Generator: Adobe Illustrator 16.0.0, SVG Export Plug-In . SVG Version: 6.00 Build 0)  -->
<!DOCTYPE svg PUBLIC "-//W3C//DTD SVG 1.1//EN" "http://www.w3.org/Graphics/SVG/1.1/DTD/svg11.dtd">
<svg version="1.1" id="Layer_1" xmlns="http://www.w3.org/2000/svg" xmlns:xlink="http://www.w3.org/1999/xlink" x="0px" y="0px"
	 width="486.75px" height="136.086px" viewBox="0 0 486.75 136.086" enable-background="new 0 0 486.75 136.086"
	 xml:space="preserve">
<g>
	<defs>
		<rect id="SVGID_1_" width="486.75" height="136.086"/>
	</defs>
	<clipPath id="SVGID_2_">
		<use xlink:href="#SVGID_1_"  overflow="visible"/>
	</clipPath>
	<path clip-path="url(#SVGID_2_)" fill="#7E4798" d="M18.972,58.55c-10.453,0-18.957-8.504-18.957-18.957
		c0-10.452,8.504-18.957,18.957-18.957s18.957,8.505,18.957,18.957C37.929,50.046,29.425,58.55,18.972,58.55 M18.972,30.505
		c-5.012,0-9.088,4.077-9.088,9.088c0,5.012,4.076,9.088,9.088,9.088c5.011,0,9.088-4.076,9.088-9.088
		C28.06,34.582,23.983,30.505,18.972,30.505"/>
	<path clip-path="url(#SVGID_2_)" fill="#05A04A" d="M65.745,58.55c-10.453,0-18.957-8.504-18.957-18.957
		c0-10.452,8.504-18.957,18.957-18.957s18.957,8.505,18.957,18.957C84.702,50.046,76.198,58.55,65.745,58.55 M65.745,30.505
		c-5.011,0-9.088,4.077-9.088,9.088c0,5.012,4.077,9.088,9.088,9.088c5.012,0,9.088-4.076,9.088-9.088
		C74.833,34.582,70.757,30.505,65.745,30.505"/>
	<path clip-path="url(#SVGID_2_)" fill="#05A04A" d="M41,96.493c-10.453,0-18.957-8.503-18.957-18.956S30.546,58.58,41,58.58
		s18.957,8.504,18.957,18.957S51.453,96.493,41,96.493 M41,68.448c-5.012,0-9.088,4.077-9.088,9.089
		c0,5.011,4.076,9.088,9.088,9.088c5.011,0,9.088-4.077,9.088-9.088C50.087,72.524,46.011,68.448,41,68.448"/>
	<path clip-path="url(#SVGID_2_)" fill="#7E4798" d="M86.641,96.493c-10.453,0-18.957-8.503-18.957-18.956
		S76.188,58.58,86.641,58.58s18.957,8.504,18.957,18.957S97.094,96.493,86.641,96.493 M86.641,68.448
		c-5.011,0-9.088,4.077-9.088,9.089c0,5.011,4.077,9.088,9.088,9.088c5.011,0,9.088-4.077,9.088-9.088
		C95.729,72.524,91.652,68.448,86.641,68.448"/>
	<path clip-path="url(#SVGID_2_)" fill="#05A04A" d="M63.545,136.086c-10.453,0-18.957-8.503-18.957-18.956
		s8.504-18.957,18.957-18.957s18.957,8.504,18.957,18.957S73.999,136.086,63.545,136.086 M63.545,108.042
		c-5.012,0-9.088,4.075-9.088,9.088c0,5.011,4.076,9.088,9.088,9.088c5.011,0,9.088-4.077,9.088-9.088
		C72.633,112.117,68.557,108.042,63.545,108.042"/>
	<polygon clip-path="url(#SVGID_2_)" fill="#05A04A" points="19.934,0.963 11.135,9.349 37.393,9.349 37.393,21.034 60.764,0.963 	
		"/>
	<polygon clip-path="url(#SVGID_2_)" fill="#7E4798" points="0,39.593 0,79.187 11.135,67.638 11.135,47.429 	"/>
	<path clip-path="url(#SVGID_2_)" fill="#221815" d="M159.369,92.559c-16.026,0-29.064-13.038-29.064-29.063
		c0-16.026,13.038-29.064,29.064-29.064s29.064,13.038,29.064,29.064C188.433,79.521,175.395,92.559,159.369,92.559 M159.369,47.589
		c-8.771,0-15.906,7.136-15.906,15.906c0,8.771,7.135,15.906,15.906,15.906s15.906-7.136,15.906-15.906
		C175.275,54.725,168.14,47.589,159.369,47.589"/>
	<path clip-path="url(#SVGID_2_)" fill="#221815" d="M221.335,92.559c-16.026,0-29.064-13.038-29.064-29.063
		c0-16.026,13.038-29.064,29.064-29.064s29.064,13.038,29.064,29.064C250.399,79.521,237.361,92.559,221.335,92.559 M221.335,47.589
		c-8.771,0-15.906,7.136-15.906,15.906c0,8.771,7.135,15.906,15.906,15.906s15.906-7.136,15.906-15.906
		C237.241,54.725,230.106,47.589,221.335,47.589"/>
	<path clip-path="url(#SVGID_2_)" fill="#221815" d="M345.796,92.559c-16.026,0-29.064-13.038-29.064-29.063
		c0-16.026,13.038-29.064,29.064-29.064s29.064,13.038,29.064,29.064C374.86,79.521,361.822,92.559,345.796,92.559 M345.796,47.589
		c-8.771,0-15.906,7.136-15.906,15.906c0,8.771,7.135,15.906,15.906,15.906c8.771,0,15.906-7.136,15.906-15.906
		C361.702,54.725,354.566,47.589,345.796,47.589"/>
	<polygon clip-path="url(#SVGID_2_)" fill="#221815" points="130.396,63.495 130.396,121.666 146.755,104.699 146.755,81.607 	"/>
	<path clip-path="url(#SVGID_2_)" fill="#221815" d="M285.462,92.559c-16.026,0-29.064-13.038-29.064-29.063
		c0-16.026,13.038-29.064,29.064-29.064c16.025,0,29.063,13.038,29.063,29.064C314.525,79.521,301.487,92.559,285.462,92.559
		 M285.462,47.589c-8.771,0-15.906,7.136-15.906,15.906c0,8.771,7.135,15.906,15.906,15.906c8.771,0,15.905-7.136,15.905-15.906
		C301.367,54.725,294.232,47.589,285.462,47.589"/>
	<polygon clip-path="url(#SVGID_2_)" fill="#221815" points="314.436,63.495 314.436,5.324 298.074,22.29 298.074,45.383 	"/>
	<polygon clip-path="url(#SVGID_2_)" fill="#05A04A" points="84.685,39.593 84.685,0 73.55,11.548 73.55,31.757 	"/>
	<path clip-path="url(#SVGID_2_)" d="M439.07,81.598c0,0.399-0.263,0.922-0.785,1.569c-4.584,5.456-10.675,8.184-18.272,8.184
		c-7.772,0-14.075-2.653-18.907-7.96c-4.709-5.131-7.063-11.606-7.063-19.431c0-7.572,2.305-13.999,6.913-19.28
		c4.809-5.531,10.924-8.296,18.348-8.296c8.07,0,14.398,2.479,18.982,7.436c0.498,0.549,0.747,1.034,0.747,1.458
		c0,0.473-0.866,2.229-2.597,5.268c-1.732,3.039-2.821,4.746-3.271,5.119c-0.198,0.2-0.448,0.299-0.747,0.299
		c-0.124,0-0.747-0.498-1.869-1.495c-1.345-1.195-2.666-2.129-3.96-2.802c-1.969-0.996-4.011-1.495-6.128-1.495
		c-3.662,0-6.59,1.371-8.781,4.111c-2.018,2.541-3.026,5.68-3.026,9.416c0,3.787,1.009,6.963,3.026,9.529
		c2.191,2.79,5.119,4.185,8.781,4.185c2.168,0,4.223-0.473,6.165-1.419c1.271-0.623,2.565-1.495,3.887-2.616
		c1.096-0.946,1.706-1.42,1.829-1.42c0.25,0,0.5,0.138,0.75,0.412c0.397,0.447,1.48,2.005,3.25,4.67
		C438.16,79.804,439.07,81.325,439.07,81.598"/>
	<path clip-path="url(#SVGID_2_)" d="M486.75,81.598c0,0.399-0.263,0.922-0.785,1.569c-4.584,5.456-10.675,8.184-18.272,8.184
		c-7.771,0-14.074-2.653-18.907-7.96c-4.708-5.131-7.063-11.606-7.063-19.431c0-7.572,2.304-13.999,6.913-19.28
		c4.808-5.531,10.923-8.296,18.347-8.296c8.071,0,14.398,2.479,18.982,7.436c0.498,0.549,0.748,1.034,0.748,1.458
		c0,0.473-0.867,2.229-2.597,5.268c-1.733,3.039-2.822,4.746-3.271,5.119c-0.199,0.2-0.449,0.299-0.748,0.299
		c-0.124,0-0.747-0.498-1.869-1.495c-1.344-1.195-2.664-2.129-3.96-2.802c-1.968-0.996-4.01-1.495-6.127-1.495
		c-3.663,0-6.59,1.371-8.782,4.111c-2.018,2.541-3.026,5.68-3.026,9.416c0,3.787,1.009,6.963,3.026,9.529
		c2.192,2.79,5.119,4.185,8.782,4.185c2.167,0,4.222-0.473,6.164-1.419c1.271-0.623,2.566-1.495,3.888-2.616
		c1.096-0.946,1.705-1.42,1.83-1.42c0.248,0,0.498,0.138,0.748,0.412c0.397,0.447,1.481,2.005,3.25,4.67
		C485.84,79.804,486.75,81.325,486.75,81.598"/>
	<path clip-path="url(#SVGID_2_)" d="M147.61,24.378c-1.724,1.001-3.807,1.502-6.246,1.502c-2.717,0-4.879-0.789-6.484-2.366
		c-1.605-1.577-2.408-3.725-2.408-6.443c0-2.733,0.874-4.972,2.622-6.717c1.748-1.744,4.061-2.616,6.938-2.616
		c1.875,0,3.504,0.27,4.887,0.81v3.302c-1.351-0.818-3.012-1.227-4.983-1.227c-1.74,0-3.157,0.574-4.249,1.722
		c-1.093,1.148-1.639,2.664-1.639,4.547c0,1.924,0.493,3.419,1.478,4.488s2.336,1.603,4.053,1.603c1.049,0,1.923-0.17,2.622-0.512
		v-3.874h-3.6v-2.765h7.009V24.378z"/>
	<rect x="151.199" y="8.025" clip-path="url(#SVGID_2_)" width="3.397" height="17.545"/>
	<path clip-path="url(#SVGID_2_)" d="M174.787,25.57V14.699c0-0.795,0.048-2.01,0.144-3.647h-0.072
		c-0.199,1.001-0.381,1.716-0.549,2.145l-4.648,12.373h-2.587l-4.708-12.266c-0.119-0.317-0.302-1.068-0.549-2.252h-0.083
		c0.087,1.295,0.131,2.702,0.131,4.22V25.57h-3.087V8.025h4.887l4.1,10.93c0.342,0.906,0.568,1.708,0.68,2.407h0.083
		c0.175-0.691,0.422-1.501,0.739-2.432l4.137-10.905h4.744V25.57H174.787z"/>
	<path clip-path="url(#SVGID_2_)" d="M194.706,24.915c-1.271,0.644-2.924,0.965-4.958,0.965c-2.599,0-4.671-0.793-6.217-2.378
		c-1.545-1.585-2.318-3.697-2.318-6.335c0-2.766,0.862-5.028,2.587-6.788c1.723-1.761,3.937-2.641,6.639-2.641
		c1.7,0,3.123,0.227,4.267,0.679v3.315c-1.192-0.692-2.543-1.037-4.053-1.037c-1.772,0-3.192,0.576-4.261,1.728
		c-1.068,1.152-1.603,2.654-1.603,4.506c0,1.819,0.508,3.274,1.525,4.362c1.017,1.089,2.373,1.633,4.065,1.633
		c1.598,0,3.04-0.382,4.327-1.144V24.915z"/>
	<polygon clip-path="url(#SVGID_2_)" points="212.502,25.57 209.105,25.57 209.105,18.18 201.309,18.18 201.309,25.57 
		197.912,25.57 197.912,8.025 201.309,8.025 201.309,15.236 209.105,15.236 209.105,8.025 212.502,8.025 	"/>
	<polygon clip-path="url(#SVGID_2_)" points="226.854,25.57 216.697,25.57 216.697,8.025 226.46,8.025 226.46,10.849 
		220.096,10.849 220.096,15.32 226.007,15.32 226.007,18.133 220.096,18.133 220.096,22.757 226.854,22.757 	"/>
	<path clip-path="url(#SVGID_2_)" d="M228.737,17.024c0-2.757,0.792-4.995,2.378-6.711c1.585-1.716,3.693-2.575,6.323-2.575
		c2.496,0,4.504,0.833,6.026,2.498c1.521,1.664,2.282,3.8,2.282,6.407c0,2.749-0.785,4.976-2.354,6.68
		c-1.568,1.705-3.645,2.557-6.228,2.557c-2.511,0-4.543-0.83-6.097-2.491C229.513,21.729,228.737,19.606,228.737,17.024
		 M232.313,16.833c0,1.78,0.438,3.24,1.317,4.381c0.878,1.14,2.072,1.71,3.582,1.71c1.565,0,2.783-0.542,3.653-1.627
		c0.87-1.085,1.305-2.557,1.305-4.416c0-1.915-0.421-3.425-1.263-4.53c-0.843-1.104-2.034-1.656-3.576-1.656
		c-1.558,0-2.783,0.577-3.677,1.734C232.759,13.585,232.313,15.054,232.313,16.833"/>
	<path clip-path="url(#SVGID_2_)" d="M264.091,25.57h-3.553l-7.76-11.884c-0.317-0.484-0.579-0.937-0.786-1.359h-0.048
		c0.063,0.556,0.096,1.463,0.096,2.718V25.57h-3.242V8.025h3.791l7.485,11.573c0.381,0.589,0.659,1.041,0.834,1.359h0.048
		c-0.064-0.31-0.096-1.128-0.096-2.455V8.025h3.23V25.57z"/>
	<path clip-path="url(#SVGID_2_)" d="M340.62,101.271c-0.265,2.014-1.123,3.831-2.577,5.451c-1.453,1.62-3.124,2.835-5.012,3.644
		l-1.479-1.626c1.475-0.471,2.806-1.234,3.992-2.293c1.188-1.059,1.993-2.179,2.418-3.359h-5.3v-1.816H340.62z M334.546,110.657
		h10.711v6.151h-10.711V110.657z M343.158,112.456h-6.495v2.555h6.495V112.456z M343.141,100.566h2.116v9.395h-2.116V100.566z"/>
	<path clip-path="url(#SVGID_2_)" d="M358.239,110.734c-0.666-0.257-1.379-0.676-2.142-1.255c-0.762-0.58-1.345-1.142-1.746-1.687
		c-0.339,0.585-0.875,1.199-1.608,1.845c-0.734,0.646-1.463,1.146-2.186,1.502l-1.454-1.445c1.319-0.54,2.333-1.225,3.041-2.057
		c0.709-0.831,1.063-1.732,1.063-2.701v-0.809h-3.648v-1.765h3.665v-1.849h2.168v1.849h3.647v1.765h-3.647v0.859
		c0,0.918,0.421,1.777,1.26,2.577c0.841,0.8,1.795,1.315,2.861,1.544L358.239,110.734z M352.415,116.586v-5.48h2.159v3.665h8.871
		v1.815H352.415z M361.011,112.438v-5.386h-3.045v-1.781h3.045v-4.706h2.116v11.873H361.011z"/>
	<path clip-path="url(#SVGID_2_)" d="M366.542,114.907v-1.798h6.607v-2.925h-5.196v-1.781h2.357l-0.189-3.871h2.15l0.138,3.871
		h3.648l0.154-3.871h2.151l-0.241,3.871h2.408v1.781h-5.212v2.925h6.624v1.798H366.542z M368.074,102.011h12.337v1.781h-12.337
		V102.011z"/>
	<polygon clip-path="url(#SVGID_2_)" points="384.162,114.891 384.162,113.092 390.77,113.092 390.77,109.797 386.614,109.797 
		386.614,102.028 397.11,102.028 397.11,103.827 388.782,103.827 388.782,107.999 397.359,107.999 397.359,109.797 392.938,109.797 
		392.938,113.092 399.563,113.092 399.563,114.891 	"/>
	<path clip-path="url(#SVGID_2_)" d="M402.659,106.803l-0.791-1.798l5.937-0.388c0.2-0.4,0.355-0.788,0.463-1.161h-5.359v-1.814
		h7.967c-0.224,2.047-0.995,3.861-2.313,5.442c-1.319,1.579-3.026,2.859-5.12,3.84l-1.479-1.548
		c1.577-0.522,3.108-1.525,4.595-3.012L402.659,106.803z M405.274,116.586v-5.575h2.159v3.76h8.871v1.815H405.274z M413.869,112.438
		v-5.368h-3.915v-1.815h3.915v-4.689h2.116v11.873H413.869z"/>
	<path clip-path="url(#SVGID_2_)" d="M419.401,113.144h15.4v1.799h-15.4V113.144z M421.674,110.451v-8.423h10.925v1.781h-8.758
		v1.515h8.285v1.78h-8.285v1.565h9.024v1.781H421.674z"/>
	<path clip-path="url(#SVGID_2_)" d="M447.431,113.127c-1.01,0.166-1.954,0.264-2.834,0.292c-0.882,0.029-3.082,0.044-6.604,0.044
		v-7.012h5.901v-2.788h-5.867v-1.815h8.002v6.401h-5.911v3.415c3.791,0.035,6.137-0.061,7.037-0.284L447.431,113.127z
		 M448.772,100.566h2.134v16.596h-2.134V100.566z"/>
	<path clip-path="url(#SVGID_2_)" d="M454.641,108.688v-1.816h10.798c0.022-0.269,0.061-0.809,0.111-1.618l-8.86,0.439l-0.482-1.781
		l9.41-0.318l0.019-1.041h-8.688v-1.789h10.84c0,2.478-0.089,4.514-0.267,6.108h2.521v1.816H454.641z M456.93,116.938v-4.448h8.706
		v-0.964h-8.706v-1.797h10.857v4.387h-8.707v1.023h9.129v1.799H456.93z"/>
	<path clip-path="url(#SVGID_2_)" d="M482.162,109.092c-0.975,0.149-1.861,0.251-2.663,0.306c-0.8,0.055-1.85,0.075-3.152,0.064
		c-1.302-0.012-2.357-0.017-3.166-0.017v-5.061h5.515v-1.479h-5.515v-1.756h7.641v4.93h-5.532v1.6c2.276,0,3.811-0.021,4.603-0.067
		c0.791-0.046,1.459-0.141,2.005-0.284L482.162,109.092z M475.727,116.81v-6.444h2.117v1.617h6.487v-1.617h2.099v6.444H475.727z
		 M484.331,113.78h-6.486v1.265h6.486V113.78z M484.279,109.643v-3.734h-2.719v-1.781h2.719v-3.561h2.116v9.076H484.279z"/>
</g>
</svg>
