<?xml version="1.0" encoding="utf-8"?>
<!-- Generator: Adobe Illustrator 22.1.0, SVG Export Plug-In . SVG Version: 6.00 Build 0)  -->
<svg version="1.1" id="Layer_1" xmlns="http://www.w3.org/2000/svg" xmlns:xlink="http://www.w3.org/1999/xlink" x="0px" y="0px"
	 viewBox="0 0 523.3 150.6" style="enable-background:new 0 0 523.3 150.6;" xml:space="preserve">
<style type="text/css">
	.st0{fill:#FFFFFF;}
	.st1{font-family:'MyriadPro-Regular';}
	.st2{font-size:41.0026px;}
	.st3{letter-spacing:4;}
	.st4{font-size:10.7555px;}
	.st5{letter-spacing:5;}
	.st6{font-size:16.1332px;}
	.st7{letter-spacing:8;}
</style>
<g>
	<path class="st0" d="M73.8,48.9c0,0,24.8,1.7,31.7,32.1c0,0,12.1-22.8,0-35.6S73.8,48.9,73.8,48.9z"/>
	<path class="st0" d="M22,5.6c0,0-30.8,42.5,27.2,64.4s27.2,50,27.2,50S135.2,69,65.8,50.2C65.8,50.2,27.6,41,22,5.6z"/>
	<path class="st0" d="M112.1,52.7c0,0,2.2,6.7,0.2,14.3c0,0,7.8-8.8,14.5-7.1C126.8,59.9,123.1,50.1,112.1,52.7z"/>
	<path class="st0" d="M13.8,30c0,0-9.6,47,16.2,59.6s49.3,14.9,35.8,38.6c0,0,52.8-29.3-13.7-57.1C52.1,71.2,13.2,58.6,13.8,30z"/>
	<path class="st0" d="M46.5,96.9c0,0,34.9,10.5,19.3,31.4c0,0-13.6,17.8-57,9.8C8.7,138.1,51.8,121.9,46.5,96.9z"/>
</g>
<text transform="matrix(1 0 0 1 157.3057 89.876)" class="st0 st1 st2 st3">S I L K R I V E R</text>
<text transform="matrix(1 0 0 1 241.5566 115.8691)" class="st0 st1 st4 st5">COUNTRY CLUB</text>
<text transform="matrix(1 0 0 1 268.4453 45.2856)" class="st0 st1 st6 st7">SEJONG</text>
</svg>
